<svg xmlns="http://www.w3.org/2000/svg" viewBox="0 0 448 512" width="40" height="40" fill="#c13584">
  <path d="M224.1 141c-63.6 0-114.9 51.3-114.9 114.9S160.5 370.8 224.1 370.8 339 319.5 339 255.9 287.7 141 224.1 141zm0 189.6c-41.2 0-74.7-33.5-74.7-74.7S182.9 181.2 224.1 181.2 298.8 214.7 298.8 255.9 265.3 330.6 224.1 330.6zm146.4-194.3c0 14.9-12.1 27-27 27s-27-12.1-27-27 12.1-27 27-27 27 12.1 27 27zM398.8 112c-1.7-35.3-9.9-66.6-36.4-93.1C335.9 9.9 304.6 1.7 269.3 0H178.7c-35.3 1.7-66.6 9.9-93.1 36.4C59.9 79.1 51.7 110.4 50 145.7v90.6c1.7 35.3 9.9 66.6 36.4 93.1 26.5 26.5 57.8 34.7 93.1 36.4h90.6c35.3-1.7 66.6-9.9 93.1-36.4 26.5-26.5 34.7-57.8 36.4-93.1v-90.6zm-48.2 207c-17.8 17.8-41.5 28.3-66.3 29.6H163.7c-24.8-1.2-48.5-11.7-66.3-29.6-17.8-17.8-28.3-41.5-29.6-66.3v-90.6c1.2-24.8 11.7-48.5 29.6-66.3s41.5-28.3 66.3-29.6h90.6c24.8 1.2 48.5 11.7 66.3 29.6 17.8 17.8 28.3 41.5 29.6 66.3v90.6c-1.2 24.8-11.7 48.5-29.6 66.3z"/>
</svg>
